<?xml version="1.0" encoding="UTF-8"?>
<svg id="Layer_1" data-name="Layer 1" xmlns="http://www.w3.org/2000/svg" viewBox="0 0 3506.32 936.46">
  <defs>
    <style>
      .cls-1 {
        fill: none;
      }

      .cls-1, .cls-2 {
        fill-rule: evenodd;
        stroke: #231f20;
        stroke-miterlimit: 10;
        stroke-width: 2px;
      }

      .cls-2 {
        fill: #ffffff;
      }
    </style>
  </defs>
  <path class="cls-2" d="M2769.24,120.04c23.52-1.9,43.96-22.73,60-34,34.08-23.95,70.83-40.19,107-62,12.04-7.26,28.81-22.45,43-23v1c-3.12,9.92-6.43,6.98-12,13-8.35,9.03-12.94,20.63-21,30-15,11.67-30,23.33-45,35-8.84,6.77-11.7,21.19-20,28-8.67,4.33-17.33,8.67-26,13-22.57,14.22-41.89,37.87-64,53-19.18,13.12-37.45,23.66-56,37-18.47,13.28-34.13,38.46-56,47h-20c-10.59-5.67-14.87-13.85-20-25,21.38-40.62,56.36-66.1,94-90,11.88-7.55,26.11-9.1,36-18v-5Z"/>
  <path class="cls-2" d="M677.24,84.04l14,3c-.64,3.63-.4,3.03-2,5-8.33,8.67-16.67,17.33-25,26-15.46,18.91-35.21,35.71-50,55-44.16,57.59-80.51,120.28-126,177-10.81,13.47-41.88,9.8-57,4-25.58-52.2,31.43-87.58,51-121v-3h-1c-12.33,4.79-20.41,14.59-30,22-7.68,5.93-17.78,6.85-25,13-19.38,16.51-43.08,32.69-64,47-28.07,19.2-57.71,33.82-84,55-18.11,14.59-36.91,30.74-58,42l-15,15c-9.71,8.5-22.6,13.25-32,22l-6,9c-23.34,13.81-62.16,43.13-78,64v1c35.06.47,67.08-15.02,99-22,50.91-11.13,116.74-26.58,173-37,23.78-4.41,55.78-14.52,77-12l28-4,49,1c33.54,6.1,63,22.61,71,54,14.33,56.21-34,108.44-69,137-16,15-32,30-48,45-86.97,66.46-175.99,128.87-268,190-23.68,15.73-119.9,73.12-157,62v-1c8.61-8.8,2.49-13.75,2-25,9-7,18-14,27-21,18.84-12.11,38.13-20.43,56-34l16-17c7.62-4.17,13.7-4.3,22-10,4.22-2.9,1.19-6.14,4-9,13.08-13.29,24.83-11.89,36-30h12l15-20c20.22-11.8,36.32-26.28,54-40,45.62-35.41,91.31-69.41,138-103l32-33c19.71-15.83,56.52-50.18,64-76-9-6.04-47.13-12.42-62-8-4.92,1.46-8.75,5.37-17,5-29.47-1.34-85.29,11.23-119,23h-21l-21,10-11-2c-39.34,10.51-81.38,22.95-120,35-52.7,16.45-134.92,18.89-150-36-1.18-4.31,2.36-5.1,3-7,.33-6.33.67-12.67,1-19,3.88-10.22,17.9-18.39,25-26,1.67-4,3.33-8,5-12,13.31-19.08,60.44-52.37,81-67,16.11-11.47,31.96-27.93,47-41,20.79-18.07,45.91-31.56,68-48,8.67-7.67,17.33-15.33,26-23,26.91-15.1,48.64-33.07,72-51l35-20c26.52-19.9,53.79-37.4,82-57,32.52-22.59,62.56-49.9,95-73,29.42-20.94,61.58-51.48,100-61,13.45-3.33,52.13,23.26,47,33l-11,9v5Z"/>
  <path class="cls-2" d="M3008.24,52.04c87.63,14.17,25.02,174.37,32,241,26.41-5.83,62.58-22,96-33,29.3-9.64,57.72-14.23,84-28,20.69-10.84,33.67-2.48,51-17l3,1c15.29-.15,35.02-6.27,53-13,45.49-17.04,106.91-28.16,155-48,6.43-2.65,15.14-.55,22-3l1,2-1,3c-14.86,11.77-34.69,25.71-48,35-11.63,8.12-37.87,11.78-51,21-7.2,5.05-14.9,14.96-22,19-10,2.33-20,4.67-30,7-24.04,10.05-47.32,24.62-72,33-32.35,10.99-67.25,19.53-96,32l-32,6c-7.76,3.23-56,19-56,19v3c-24.9,9.88-45.17,8.03-65,21-1.77,9.77-5.91,28.81-5,36l1,31c-8.26,34.91-14.2,100.92-7,142-1,11.67-2,23.33-3,35,3.33,34.66,6.67,69.34,10,104-2.72,13.28-11.18,14.28-14,26-10.81,2.05-23.73,4.82-35-2-3.27-11.32-9.14-19.16-12-31-6.37-26.4-6-47.8-10-71,.67-8.67,1.33-17.33,2-26v-106c-.91-23.29,18.57-99.72,7-115-7.86,2.68-9.93,7.07-15,10-.71.41-22.98,3.44-28,5-4.21,1.31-50.89,23.75-55,27-13.44,10.64-18.55,36.43-26,53-14.36,31.96-31.59,64.25-48,96-5.06,9.79-14.33,17.92-17,28-6.34,23.89-37.21,101.08-76,88-8.9-3-23.56-36.26-19-48,7.89-20.33,24.57-43.41,35-63,8.33-18.33,16.67-36.67,25-55,6.46-11.35,18.06-23.33,19-39h-1c-1.37,4.57-23.38,12.76-32,17-19.34,9.5-65.55,57.64-90,50l-16-11c2.1-9.39,1.23-9.12-4-15,14.04-41.83,103.42-87.87,144-107,14.53-6.85,37.81-13.41,48-25,4.33-9.33,8.67-18.67,13-28,15.1-27.88,29.34-57.76,45-85,1.67-6,3.33-12,5-18,22.68-36.13,34.09-66.65,54-100l9-25c5.23-7.81,15.59-15.25,21-23,7.89-11.3,12.2-22.92,22-32,9.67-8,19.33-16,29-24ZM2990.24,172.04c-3.16,36.11-5.34,72.28-11,106-1.33,12-2.67,24-4,36-7.62,13.56-55.02,22.89-69,31l-2-1c4.56-17.98,14.65-32.47,22-47l-3-8c13.04-15.25,29.28-40.83,37-60v-14c.44-1.26,25.02-42.76,27-45l3,2Z"/>
  <path class="cls-2" d="M2419.24,163.04c44.69,2.64,89.61,6.41,118,30,34,28.24-14.08,88.6-36,102-92.9,56.8-202.13,107.77-317,141-27.61,7.99-134.59,30.56-146,46l2,3c19.03.09,36.14,8.55,51,13,38.01,11.37,80.66,16.91,118,30l63,15c75.71,23.6,158.73,45.68,231,75,54.72,22.2,135.85,40.49,172,80v1l-13,2c-5.16-2.64-10.41-8.27-16-7l-4,1v1h2l21,12-1,4-17-4c-9.03,1.9-15.59,9.58-31,6-55.15-12.8-111.39-33.01-163-51-16.66-4-33.33-8-50-12-72.64-22.62-147.54-45.16-227-64-42.79-10.14-89.34-24.75-129-31l-56-14c-8.67,10.67-17.33,21.33-26,32-21.47,22.9-43.12,45.32-70,63l-8-4c-.6-34.3,29.76-76.6,41-102-13.64-11.32-38.31-7.32-55-16-9-4.68-26.66-29.46-35-38l3-4c7.8.92,6.85,1.25,13-2l-3-7,9-6-2-10c10.63-1.07,29.86-9.72,46-13l17,2c4.54-.97,13.54-7.69,19-9l20,1c2.28-1.13,4.48-6.54,8-8,12.61-5.24,29.67-1.36,39-11,17.74-18.32,39.33-52.25,52-75l-1-4h-3c-5.47,10.05-21.17,15.06-30,22-19.37,15.22-34.21,37.93-55,52-9.02,6.11-20.74,5.27-29,11-16.55-4.31-13.65-16.59-23-28,28.69-67.5,97.58-101.47,158-137,18.66-9,37.34-18,56-27,6-12,12-24,18-36,5.75-8.82,14.81-17.58,23-24,11.14,3.26,19.22,4.95,31,7,1.45,7.54,3.48,18.19,9,22,11.18,3.13,56.39-13.74,71-17l17,3c8.92-2.61,21-7.68,30-10,29.33-2,58.67-4,88-6ZM2470.24,226.04l1,4c-25.86,11.98-50.16,33.81-76,45-86.24,37.33-178.5,85.63-276,104,2.3-13.41,26.88-38.39,34-50,13.67-23.33,27.33-46.67,41-70l23-6c41.96-13.14,87.58-21.22,134-29l51-4c23.63.09,47.07,2.42,68,6Z"/>
  <path class="cls-1" d="M1979.24,263.04l2,1-2,2-2-2,2-1Z"/>
  <path class="cls-1" d="M1888.24,272.04l7,4c2.97-2.2,2.4-2.85,7-4v1l-2,3c-6.1,2.2-9.35,6.66-14,2l2-6Z"/>
  <path class="cls-2" d="M2626.24,280.04l16,3c10.71,48.22-23.15,113.52-43,149-3.79,6.78-34.36,50.44-31,56-5.7,10.77-28.86,46.53-28,55,1.88,18.42-34.55,47.56-56,40-32.97-22.73-2.4-46.2,5-74,9.18-34.46,34.27-66.22,51-95,17.87-30.74,30.55-63.94,50-93,12-13.67,24-27.33,36-41Z"/>
  <path class="cls-2" d="M803.24,196.04c12.85,1.45,22.22,7.45,28,16l-1,8c7.46,10.4,22.18-.39,32,6,28.64,18.62,49.79,71.15,39,112-2.39,9.06,5.86,6.61-2,13-7.62,31.86-29.25,59.86-48,82-8.72,10.3-18,11.34-23,28h-11c-3.02,15.83-88.53,87.51-107,93-33.43,9.93-75.51-2.55-87-22-17.29-29.27,4.52-84.05,15-105,26.21-52.39,56.15-102.03,92-145,20.08-24.07,32.82-53.16,54-76,4.22-4.55,14.38-5.89,19-10ZM833.24,284.04c19.12,19.01,9.1,50.57-4,71-29.13,45.41-88.1,106.73-136,129h-8c4.8-11.29,16.66-23.99,22-35,22.89-47.15,46.85-92.82,79-131l42-34h5Z"/>
  <path class="cls-2" d="M2108.24,134.04c6.67.67,13.33,1.33,20,2l6,9c15,7.09,24.93-3.8,32,11-7,11.36-23.12,10.31-37,15-11.95,4.04-23.81,13.3-37,18-27.02,9.63-51.44,10.56-80,19-119.44,35.3-231.94,60.02-350,86-12,17.33-24,34.67-36,52h3c49.83-22.33,117.01-37.48,164-53,15.75-5.2,32.33-.93,44-9l5,4c6.97-5.1,32.92-17,39-13l2,6-3,1-16,4v1h4c23.7,5.16,85.12-26.18,103-20v1c-4.73-.06-6.66.13-9,2h-2l1,4c10.98-.49,15.39,3.54,20,8l18,1-1,2c-14.72,3.67-37.08,22.37-52,30-22.65,11.58-50.38,17.77-74,27l-70,19c-56.84,18.95-117.49,43.37-173,63-34.84,12.32-75.64,19.34-104,39-14.08,9.76-27.27,27.46-39,40l1,2c24.88-2.19,52.15-16.78,74-24,60.29-19.93,137.93-31.42,200-43,5.15-.96,6.24-5.97,13-7-2.78,3.65-5.01,4.67-2,9,10.84-2.59,21.62-1.82,33-4v1c-2.14,5.76-1.2,12.19,1,19,3.98-1.38,4.39-1.38,9-1v1c-29.24,45.31-93.9,46.31-153,66-59.49,19.82-124.79,32.47-180,58-18.54,8.57-38,21.82-56,30-31.07,14.11-61.77,39.8-97,47-8.64,1.77-10.9-3.95-18-5l1-7c-8.72-5.86-15.3-16.33-21-25,4.77-7.08.59-8.68-1-17,11.43-22.83,33.19-36.42,51-53,30.29-28.19,60.29-57.18,89-87-3.21-12.21-6.37-21.45-9-36l-3,1c-9.8,27.94-23.26,23.45-40,40l4,5-1,2h-5c-1.82-4.66-.56-3.82-4-3l-3,2c2.42,2.97,2.91,2.03,4,7-16.24,3.86-23.11,18.84-34,28-18.65,15.68-43.08,26.59-60,44-22.19,22.83-39.23,48.58-69,64-5.39,2.79-6.22,11.63-13,14l-9-1-9,12h-14c-4.91,1.49-15.62,8.04-22,10-17.74,5.46-48.85-8.07-58-15-4.69-11.66-13.48-19.57-16-35-6.12-37.43,30.04-60.18,36-89l-4-2-3,2c-4,8.69-71.09,41.6-87,52l-5,9c-19.84,13.85-39.09,24.42-59,38l-22,22-15,3c-19.85,16.57-36.28,34.5-60,48-38.55-7.18-40.98-4.78-69-28,1.84-6.41-3.05-10.16-2-18l12-36c17.78-39.26,43.96-69.67,67-103,36.73-53.13,75.55-100.41,113-152l20-18c29.67-39.2,60.98-74.33,96-108,11.67-11.22,20.66-26.54,35-35,10.43-6.15,22.99-7.17,35-12,13.57,8.67,45.39,23.16,26,46l1,2c4.58-.86,9.97-2.07,13,1,2.48,10.64-17.3,29.87-23,38l-2,11-7,3c-7.25,10.42-9.24,21.52-16,33l-12,9c-8.3,13.69-15.21,24.44-23,39-5.18,9.69-18.96,17.05-17,31,1.31,9.34-21.41,25.46-29,23-8.95,1.85-12.9-1.52-20,3l-15-10c-3.18-5.87-.7-8.91-5-13l-3,2c-4.23,8.93-13.89,12.53-19,20-18.59,27.16-48.36,53.87-59,84-3.71-.74-3.89-.47-7,1-4.07,16.05-9.01,11.32-16,19l-7,17c-4.09,7.73-15.97,14-19,19-2.97,4.91-4.12,12.44-8,18l2,3h1c39.96-36.52,91.43-52.22,137-85,23.33-16.78,59.71-39.99,89-39l1-7c3.2.78,57.65-18.66,62-27,15.37-29.5,45.7-51.63,67-78,34.09-42.2,73.73-77.13,112-115,9.14-9.04,73.23-71.18,90-52,8.26,2.73,22.38,9.4,26,17,4.11,6.73.82,14.73-2,20,4.04,5.92,8.84,4.74,10,14-7.5,4.58-18.16,22.25-19,33l1,2c18.43,2.51,35.39-5.26,52-9l108-19c26.75-5.72,30.13-32.23,54-13,34.82.93,68.62-10.38,98-20,11.11-3.64,19.34.73,30-2l38-15c9.35-2.26,31.45-4.39,38-2,38.55-12.04,79.48-16.06,117-27l17,3c5.83-1.13,15.87-3.49,21-5l18,3c3.67-3,7.33-6,11-9,11.5-4.19,25.99,2.6,39-8ZM1346.24,461.04l-1,1-5-2c-19.11,22.57-52.93,34.33-78,51-35.17,23.38-66.86,54.02-112,68h-1c2.79-23.8,28.41-46.62,41-63,29.55-38.46,57.8-76.41,91-111,7.95-8.29,31.83-41.2,40-45,1.97-1.6,1.37-1.36,5-2l3,5-4,16c13.42,20.36,28.05,18.94,55,13l12-19,3-14c6.7-10.48,18.19-17.26,22-31,10.72-2,18.77,7.89,30,6,37.33-6.29,85.51-15.71,125-22l2,1c-4.31,9.14-11.4,9.25-17,16-16.39,19.75-32.79,48.84-56,61-21.81,11.42-48.35,12.65-72,22-20.46,8.09-35.61,22.71-59,28,.14,2.45.54,2.87,2,6-4.6,4.92-17.61,8.55-26,9v6Z"/>
  <path class="cls-1" d="M2068.24,321.04l-6,7h3c1.73-3.66,3.71-3.65,3-7Z"/>
</svg>